<svg xmlns="http://www.w3.org/2000/svg" xmlns:xlink="http://www.w3.org/1999/xlink" width="415" zoomAndPan="magnify" viewBox="0 0 311.25 86.999996" height="116" preserveAspectRatio="xMidYMid meet" version="1.0"><defs><g/><clipPath id="7bad016fc7"><rect x="0" width="15" y="0" height="12"/></clipPath></defs><g fill="#000000" fill-opacity="1"><g transform="translate(98.737757, 57.147896)"><g><path d="M 5.265625 -27.375 L 7.1875 -27.375 C 7.550781 -27.375 7.734375 -27.1875 7.734375 -26.8125 L 7.734375 -3.03125 L 23.34375 -3.03125 C 23.5 -3.03125 23.628906 -2.96875 23.734375 -2.84375 C 23.847656 -2.726562 23.90625 -2.601562 23.90625 -2.46875 L 23.90625 -0.5625 C 23.90625 -0.1875 23.71875 0 23.34375 0 L 5.265625 0 C 5.128906 0 5 -0.0507812 4.875 -0.15625 C 4.757812 -0.257812 4.703125 -0.394531 4.703125 -0.5625 L 4.703125 -26.8125 C 4.703125 -26.976562 4.757812 -27.113281 4.875 -27.21875 C 5 -27.320312 5.128906 -27.375 5.265625 -27.375 Z M 5.265625 -27.375 "/></g></g></g><g fill="#000000" fill-opacity="1"><g transform="translate(126.707593, 57.147896)"><g><path d="M 17.640625 -27.375 C 17.796875 -27.375 17.945312 -27.320312 18.09375 -27.21875 C 18.238281 -27.113281 18.335938 -26.992188 18.390625 -26.859375 L 23.9375 -12.96875 C 24 -12.832031 24.046875 -12.65625 24.078125 -12.4375 C 24.117188 -12.226562 24.140625 -12.046875 24.140625 -11.890625 L 24.140625 -0.5625 C 24.140625 -0.1875 23.953125 0 23.578125 0 L 21.703125 0 C 21.335938 0 21.15625 -0.1875 21.15625 -0.5625 L 21.15625 -7.9375 L 6.671875 -7.9375 L 6.671875 -0.5625 C 6.671875 -0.1875 6.484375 0 6.109375 0 L 4.1875 0 C 3.8125 0 3.625 -0.1875 3.625 -0.5625 L 3.625 -11.890625 C 3.625 -12.046875 3.644531 -12.226562 3.6875 -12.4375 C 3.726562 -12.65625 3.773438 -12.832031 3.828125 -12.96875 L 9.375 -26.859375 C 9.425781 -26.992188 9.53125 -27.113281 9.6875 -27.21875 C 9.851562 -27.320312 10.003906 -27.375 10.140625 -27.375 Z M 21.15625 -10.9375 L 21.15625 -11.890625 L 16.15625 -24.34375 L 11.65625 -24.34375 L 6.671875 -11.890625 L 6.671875 -10.9375 Z M 21.15625 -10.9375 "/></g></g></g><g fill="#000000" fill-opacity="1"><g transform="translate(154.67743, 57.147896)"><g><path d="M 4.03125 -19.546875 C 3.925781 -19.679688 3.832031 -19.832031 3.75 -20 C 3.664062 -20.175781 3.625 -20.347656 3.625 -20.515625 L 3.625 -26.8125 C 3.625 -26.945312 3.679688 -27.070312 3.796875 -27.1875 C 3.921875 -27.3125 4.050781 -27.375 4.1875 -27.375 L 6.109375 -27.375 C 6.265625 -27.375 6.394531 -27.3125 6.5 -27.1875 C 6.613281 -27.070312 6.671875 -26.945312 6.671875 -26.8125 L 6.671875 -21.703125 C 6.671875 -21.578125 6.707031 -21.421875 6.78125 -21.234375 C 6.863281 -21.046875 6.957031 -20.882812 7.0625 -20.75 L 13.921875 -14.046875 L 20.75 -20.75 C 20.882812 -20.882812 20.984375 -21.046875 21.046875 -21.234375 C 21.117188 -21.421875 21.15625 -21.578125 21.15625 -21.703125 L 21.15625 -26.8125 C 21.15625 -26.945312 21.207031 -27.070312 21.3125 -27.1875 C 21.414062 -27.3125 21.546875 -27.375 21.703125 -27.375 L 23.625 -27.375 C 23.78125 -27.375 23.910156 -27.3125 24.015625 -27.1875 C 24.128906 -27.070312 24.1875 -26.945312 24.1875 -26.8125 L 24.1875 -20.515625 C 24.1875 -20.347656 24.144531 -20.175781 24.0625 -20 C 23.976562 -19.832031 23.882812 -19.679688 23.78125 -19.546875 L 15.4375 -11.25 L 15.4375 -0.5625 C 15.4375 -0.394531 15.375 -0.257812 15.25 -0.15625 C 15.132812 -0.0507812 15.015625 0 14.890625 0 L 12.96875 0 C 12.59375 0 12.40625 -0.1875 12.40625 -0.5625 L 12.40625 -11.25 Z M 4.03125 -19.546875 "/></g></g></g><g fill="#000000" fill-opacity="1"><g transform="translate(182.607366, 57.147896)"><g><path d="M 4.265625 -0.5625 L 4.265625 -26.8125 C 4.265625 -27.1875 4.453125 -27.375 4.828125 -27.375 L 23.421875 -27.375 C 23.796875 -27.375 23.984375 -27.1875 23.984375 -26.8125 L 23.984375 -24.90625 C 23.984375 -24.53125 23.796875 -24.34375 23.421875 -24.34375 L 7.265625 -24.34375 L 7.265625 -15.203125 L 21.265625 -15.203125 C 21.398438 -15.203125 21.523438 -15.140625 21.640625 -15.015625 C 21.765625 -14.898438 21.828125 -14.773438 21.828125 -14.640625 L 21.828125 -12.734375 C 21.828125 -12.566406 21.765625 -12.429688 21.640625 -12.328125 C 21.523438 -12.222656 21.398438 -12.171875 21.265625 -12.171875 L 7.265625 -12.171875 L 7.265625 -3.03125 L 23.421875 -3.03125 C 23.585938 -3.03125 23.722656 -2.96875 23.828125 -2.84375 C 23.929688 -2.726562 23.984375 -2.601562 23.984375 -2.46875 L 23.984375 -0.5625 C 23.984375 -0.1875 23.796875 0 23.421875 0 L 4.828125 0 C 4.453125 0 4.265625 -0.1875 4.265625 -0.5625 Z M 4.265625 -0.5625 "/></g></g></g><g fill="#000000" fill-opacity="1"><g transform="translate(210.537302, 57.147896)"><g><path d="M 20.390625 -0.515625 L 15.203125 -12.171875 L 6.671875 -12.171875 L 6.671875 -0.5625 C 6.671875 -0.1875 6.484375 0 6.109375 0 L 4.234375 0 C 3.859375 0 3.671875 -0.1875 3.671875 -0.5625 L 3.671875 -26.8125 C 3.671875 -27.1875 3.859375 -27.375 4.234375 -27.375 L 18.359375 -27.375 C 19.148438 -27.375 19.898438 -27.21875 20.609375 -26.90625 C 21.316406 -26.601562 21.9375 -26.1875 22.46875 -25.65625 C 23 -25.125 23.414062 -24.503906 23.71875 -23.796875 C 24.03125 -23.097656 24.1875 -22.347656 24.1875 -21.546875 L 24.1875 -18 C 24.1875 -16.695312 23.789062 -15.53125 23 -14.5 C 22.21875 -13.476562 21.203125 -12.78125 19.953125 -12.40625 L 18.59375 -12.015625 L 23.703125 -0.515625 C 23.785156 -0.378906 23.789062 -0.257812 23.71875 -0.15625 C 23.65625 -0.0507812 23.546875 0 23.390625 0 L 21.1875 0 C 21.03125 0 20.867188 -0.0507812 20.703125 -0.15625 C 20.546875 -0.257812 20.441406 -0.378906 20.390625 -0.515625 Z M 6.671875 -15.203125 L 18.359375 -15.203125 C 19.128906 -15.203125 19.785156 -15.472656 20.328125 -16.015625 C 20.878906 -16.566406 21.15625 -17.226562 21.15625 -18 L 21.15625 -21.546875 C 21.15625 -22.316406 20.878906 -22.972656 20.328125 -23.515625 C 19.785156 -24.066406 19.128906 -24.34375 18.359375 -24.34375 L 6.671875 -24.34375 Z M 6.671875 -15.203125 "/></g></g></g><g fill="#000000" fill-opacity="1"><g transform="translate(238.507139, 57.147896)"><g><path d="M 4.265625 -0.5625 L 4.265625 -26.8125 C 4.265625 -27.1875 4.453125 -27.375 4.828125 -27.375 L 23.421875 -27.375 C 23.796875 -27.375 23.984375 -27.1875 23.984375 -26.8125 L 23.984375 -24.90625 C 23.984375 -24.53125 23.796875 -24.34375 23.421875 -24.34375 L 7.265625 -24.34375 L 7.265625 -15.203125 L 21.265625 -15.203125 C 21.398438 -15.203125 21.523438 -15.140625 21.640625 -15.015625 C 21.765625 -14.898438 21.828125 -14.773438 21.828125 -14.640625 L 21.828125 -12.734375 C 21.828125 -12.566406 21.765625 -12.429688 21.640625 -12.328125 C 21.523438 -12.222656 21.398438 -12.171875 21.265625 -12.171875 L 7.265625 -12.171875 L 7.265625 -3.03125 L 23.421875 -3.03125 C 23.585938 -3.03125 23.722656 -2.96875 23.828125 -2.84375 C 23.929688 -2.726562 23.984375 -2.601562 23.984375 -2.46875 L 23.984375 -0.5625 C 23.984375 -0.1875 23.796875 0 23.421875 0 L 4.828125 0 C 4.453125 0 4.265625 -0.1875 4.265625 -0.5625 Z M 4.265625 -0.5625 "/></g></g></g><g fill="#000000" fill-opacity="1"><g transform="translate(266.437075, 57.147896)"><g><path d="M 3.625 -0.5625 L 3.625 -26.8125 C 3.625 -26.945312 3.679688 -27.070312 3.796875 -27.1875 C 3.921875 -27.3125 4.050781 -27.375 4.1875 -27.375 L 18.359375 -27.375 C 19.148438 -27.375 19.898438 -27.21875 20.609375 -26.90625 C 21.316406 -26.601562 21.9375 -26.1875 22.46875 -25.65625 C 23 -25.125 23.414062 -24.503906 23.71875 -23.796875 C 24.03125 -23.097656 24.1875 -22.347656 24.1875 -21.546875 L 24.1875 -5.828125 C 24.1875 -5.023438 24.03125 -4.265625 23.71875 -3.546875 C 23.414062 -2.828125 23 -2.207031 22.46875 -1.6875 C 21.9375 -1.175781 21.316406 -0.765625 20.609375 -0.453125 C 19.898438 -0.148438 19.148438 0 18.359375 0 L 4.1875 0 C 4.050781 0 3.921875 -0.0507812 3.796875 -0.15625 C 3.679688 -0.257812 3.625 -0.394531 3.625 -0.5625 Z M 6.671875 -3.03125 L 18.359375 -3.03125 C 19.128906 -3.03125 19.785156 -3.300781 20.328125 -3.84375 C 20.878906 -4.394531 21.15625 -5.054688 21.15625 -5.828125 L 21.15625 -21.546875 C 21.15625 -22.316406 20.878906 -22.972656 20.328125 -23.515625 C 19.785156 -24.066406 19.128906 -24.34375 18.359375 -24.34375 L 6.671875 -24.34375 Z M 6.671875 -3.03125 "/></g></g></g><g transform="matrix(1, 0, 0, 1, 294, 19)"><g clip-path="url(#7bad016fc7)"><g fill="#000000" fill-opacity="1"><g transform="translate(1.077327, 8.963223)"><g><path d="M 2.453125 0 L 1.8125 0 L 1.8125 -4.96875 L 0.0625 -4.96875 L 0.0625 -5.53125 L 4.1875 -5.53125 L 4.1875 -4.96875 L 2.453125 -4.96875 Z M 2.453125 0 "/></g></g></g><g fill="#000000" fill-opacity="1"><g transform="translate(5.890576, 8.963223)"><g><path d="M 3.1875 0 L 1.328125 -4.890625 L 1.296875 -4.890625 C 1.304688 -4.785156 1.316406 -4.660156 1.328125 -4.515625 C 1.335938 -4.367188 1.34375 -4.207031 1.34375 -4.03125 C 1.351562 -3.851562 1.359375 -3.675781 1.359375 -3.5 L 1.359375 0 L 0.75 0 L 0.75 -5.53125 L 1.703125 -5.53125 L 3.46875 -0.9375 L 3.484375 -0.9375 L 5.265625 -5.53125 L 6.21875 -5.53125 L 6.21875 0 L 5.578125 0 L 5.578125 -3.546875 C 5.578125 -3.703125 5.578125 -3.863281 5.578125 -4.03125 C 5.585938 -4.195312 5.59375 -4.351562 5.59375 -4.5 C 5.601562 -4.644531 5.613281 -4.773438 5.625 -4.890625 L 5.59375 -4.890625 L 3.71875 0 Z M 3.1875 0 "/></g></g></g></g></g><path fill="#000000" d="M 43.019531 40.746094 L 11.507812 25.917969 L 43.019531 11.089844 L 74.535156 25.917969 Z M 8.980469 27.101562 L 43.019531 43.125 L 77.0625 27.101562 L 79.589844 25.917969 L 77.0625 24.734375 L 43.019531 8.707031 L 8.980469 24.734375 L 6.453125 25.917969 Z M 17.15625 38.085938 C 10.769531 41.097656 7.191406 42.777344 6.453125 43.125 L 8.980469 44.308594 L 43.019531 60.335938 L 77.0625 44.308594 L 79.589844 43.125 C 78.851562 42.777344 75.273438 41.097656 68.886719 38.085938 L 66.359375 39.265625 L 74.535156 43.113281 L 43.019531 57.941406 L 11.507812 43.113281 L 19.683594 39.265625 Z M 8.980469 59.152344 L 6.453125 60.335938 L 8.980469 61.515625 L 43.019531 77.542969 L 77.0625 61.515625 L 79.589844 60.335938 C 78.851562 59.984375 75.273438 58.304688 68.886719 55.292969 L 66.359375 56.476562 L 74.535156 60.320312 L 43.019531 75.148438 L 11.507812 60.320312 L 19.683594 56.476562 L 17.15625 55.292969 L 8.980469 59.136719 Z M 8.980469 59.152344 " fill-opacity="1" fill-rule="nonzero"/></svg>