<svg xmlns="http://www.w3.org/2000/svg" xmlns:xlink="http://www.w3.org/1999/xlink" width="208" zoomAndPan="magnify" viewBox="0 0 156 43.499998" height="58" preserveAspectRatio="xMidYMid meet" version="1.0"><defs><g/><clipPath id="40bd30cf92"><path d="M 0.886719 0 L 154 0 L 154 43.003906 L 0.886719 43.003906 Z M 0.886719 0 " clip-rule="nonzero"/></clipPath><clipPath id="6685df794d"><path d="M 147 9 L 153.691406 9 L 153.691406 16 L 147 16 Z M 147 9 " clip-rule="nonzero"/></clipPath><clipPath id="551a0ffd33"><path d="M 0.046875 2 L 3 2 L 3 5 L 0.046875 5 Z M 0.046875 2 " clip-rule="nonzero"/></clipPath><clipPath id="f751ce8d02"><rect x="0" width="7" y="0" height="7"/></clipPath><clipPath id="2f5b860faf"><rect x="0" width="154" y="0" height="44"/></clipPath></defs><g clip-path="url(#40bd30cf92)"><g><g clip-path="url(#2f5b860faf)"><g fill="#000000" fill-opacity="1"><g transform="translate(49.811842, 28.2655)"><g><path d="M 2.609375 -13.5625 L 3.5625 -13.5625 C 3.738281 -13.5625 3.828125 -13.46875 3.828125 -13.28125 L 3.828125 -1.5 L 11.5625 -1.5 C 11.644531 -1.5 11.710938 -1.46875 11.765625 -1.40625 C 11.816406 -1.351562 11.84375 -1.289062 11.84375 -1.21875 L 11.84375 -0.28125 C 11.84375 -0.09375 11.75 0 11.5625 0 L 2.609375 0 C 2.546875 0 2.484375 -0.0234375 2.421875 -0.078125 C 2.359375 -0.128906 2.328125 -0.195312 2.328125 -0.28125 L 2.328125 -13.28125 C 2.328125 -13.363281 2.359375 -13.429688 2.421875 -13.484375 C 2.484375 -13.535156 2.546875 -13.5625 2.609375 -13.5625 Z M 2.609375 -13.5625 "/></g></g></g><g fill="#000000" fill-opacity="1"><g transform="translate(63.671156, 28.2655)"><g><path d="M 8.734375 -13.5625 C 8.816406 -13.5625 8.894531 -13.535156 8.96875 -13.484375 C 9.039062 -13.429688 9.085938 -13.367188 9.109375 -13.296875 L 11.859375 -6.421875 C 11.890625 -6.359375 11.910156 -6.273438 11.921875 -6.171875 C 11.941406 -6.066406 11.953125 -5.972656 11.953125 -5.890625 L 11.953125 -0.28125 C 11.953125 -0.09375 11.863281 0 11.6875 0 L 10.75 0 C 10.5625 0 10.46875 -0.09375 10.46875 -0.28125 L 10.46875 -3.9375 L 3.296875 -3.9375 L 3.296875 -0.28125 C 3.296875 -0.09375 3.207031 0 3.03125 0 L 2.078125 0 C 1.890625 0 1.796875 -0.09375 1.796875 -0.28125 L 1.796875 -5.890625 C 1.796875 -5.972656 1.804688 -6.066406 1.828125 -6.171875 C 1.847656 -6.273438 1.867188 -6.359375 1.890625 -6.421875 L 4.640625 -13.296875 C 4.671875 -13.367188 4.722656 -13.429688 4.796875 -13.484375 C 4.878906 -13.535156 4.953125 -13.5625 5.015625 -13.5625 Z M 10.46875 -5.421875 L 10.46875 -5.890625 L 8 -12.0625 L 5.765625 -12.0625 L 3.296875 -5.890625 L 3.296875 -5.421875 Z M 10.46875 -5.421875 "/></g></g></g><g fill="#000000" fill-opacity="1"><g transform="translate(77.53047, 28.2655)"><g><path d="M 2 -9.6875 C 1.945312 -9.75 1.898438 -9.820312 1.859375 -9.90625 C 1.816406 -10 1.796875 -10.082031 1.796875 -10.15625 L 1.796875 -13.28125 C 1.796875 -13.34375 1.820312 -13.40625 1.875 -13.46875 C 1.9375 -13.53125 2.003906 -13.5625 2.078125 -13.5625 L 3.03125 -13.5625 C 3.101562 -13.5625 3.164062 -13.53125 3.21875 -13.46875 C 3.269531 -13.40625 3.296875 -13.34375 3.296875 -13.28125 L 3.296875 -10.75 C 3.296875 -10.6875 3.316406 -10.609375 3.359375 -10.515625 C 3.398438 -10.421875 3.445312 -10.34375 3.5 -10.28125 L 6.890625 -6.953125 L 10.28125 -10.28125 C 10.34375 -10.34375 10.390625 -10.421875 10.421875 -10.515625 C 10.453125 -10.609375 10.46875 -10.6875 10.46875 -10.75 L 10.46875 -13.28125 C 10.46875 -13.34375 10.492188 -13.40625 10.546875 -13.46875 C 10.609375 -13.53125 10.675781 -13.5625 10.75 -13.5625 L 11.703125 -13.5625 C 11.773438 -13.5625 11.835938 -13.53125 11.890625 -13.46875 C 11.953125 -13.40625 11.984375 -13.34375 11.984375 -13.28125 L 11.984375 -10.15625 C 11.984375 -10.082031 11.960938 -10 11.921875 -9.90625 C 11.878906 -9.820312 11.832031 -9.75 11.78125 -9.6875 L 7.65625 -5.578125 L 7.65625 -0.28125 C 7.65625 -0.195312 7.625 -0.128906 7.5625 -0.078125 C 7.5 -0.0234375 7.4375 0 7.375 0 L 6.421875 0 C 6.234375 0 6.140625 -0.09375 6.140625 -0.28125 L 6.140625 -5.578125 Z M 2 -9.6875 "/></g></g></g><g fill="#000000" fill-opacity="1"><g transform="translate(91.370013, 28.2655)"><g><path d="M 2.109375 -0.28125 L 2.109375 -13.28125 C 2.109375 -13.46875 2.203125 -13.5625 2.390625 -13.5625 L 11.609375 -13.5625 C 11.785156 -13.5625 11.875 -13.46875 11.875 -13.28125 L 11.875 -12.328125 C 11.875 -12.148438 11.785156 -12.0625 11.609375 -12.0625 L 3.59375 -12.0625 L 3.59375 -7.53125 L 10.53125 -7.53125 C 10.601562 -7.53125 10.664062 -7.5 10.71875 -7.4375 C 10.78125 -7.382812 10.8125 -7.320312 10.8125 -7.25 L 10.8125 -6.3125 C 10.8125 -6.226562 10.78125 -6.160156 10.71875 -6.109375 C 10.664062 -6.054688 10.601562 -6.03125 10.53125 -6.03125 L 3.59375 -6.03125 L 3.59375 -1.5 L 11.609375 -1.5 C 11.679688 -1.5 11.742188 -1.46875 11.796875 -1.40625 C 11.847656 -1.351562 11.875 -1.289062 11.875 -1.21875 L 11.875 -0.28125 C 11.875 -0.09375 11.785156 0 11.609375 0 L 2.390625 0 C 2.203125 0 2.109375 -0.09375 2.109375 -0.28125 Z M 2.109375 -0.28125 "/></g></g></g><g fill="#000000" fill-opacity="1"><g transform="translate(105.209556, 28.2655)"><g><path d="M 10.09375 -0.25 L 7.53125 -6.03125 L 3.296875 -6.03125 L 3.296875 -0.28125 C 3.296875 -0.09375 3.207031 0 3.03125 0 L 2.09375 0 C 1.90625 0 1.8125 -0.09375 1.8125 -0.28125 L 1.8125 -13.28125 C 1.8125 -13.46875 1.90625 -13.5625 2.09375 -13.5625 L 9.09375 -13.5625 C 9.488281 -13.5625 9.859375 -13.484375 10.203125 -13.328125 C 10.554688 -13.179688 10.863281 -12.972656 11.125 -12.703125 C 11.382812 -12.441406 11.59375 -12.132812 11.75 -11.78125 C 11.90625 -11.4375 11.984375 -11.066406 11.984375 -10.671875 L 11.984375 -8.921875 C 11.984375 -8.273438 11.785156 -7.695312 11.390625 -7.1875 C 11.003906 -6.675781 10.5 -6.328125 9.875 -6.140625 L 9.203125 -5.953125 L 11.734375 -0.25 C 11.773438 -0.1875 11.78125 -0.128906 11.75 -0.078125 C 11.71875 -0.0234375 11.660156 0 11.578125 0 L 10.5 0 C 10.414062 0 10.332031 -0.0234375 10.25 -0.078125 C 10.175781 -0.128906 10.125 -0.1875 10.09375 -0.25 Z M 3.296875 -7.53125 L 9.09375 -7.53125 C 9.476562 -7.53125 9.800781 -7.664062 10.0625 -7.9375 C 10.332031 -8.207031 10.46875 -8.535156 10.46875 -8.921875 L 10.46875 -10.671875 C 10.46875 -11.054688 10.332031 -11.382812 10.0625 -11.65625 C 9.800781 -11.925781 9.476562 -12.0625 9.09375 -12.0625 L 3.296875 -12.0625 Z M 3.296875 -7.53125 "/></g></g></g><g fill="#000000" fill-opacity="1"><g transform="translate(119.06887, 28.2655)"><g><path d="M 2.109375 -0.28125 L 2.109375 -13.28125 C 2.109375 -13.46875 2.203125 -13.5625 2.390625 -13.5625 L 11.609375 -13.5625 C 11.785156 -13.5625 11.875 -13.46875 11.875 -13.28125 L 11.875 -12.328125 C 11.875 -12.148438 11.785156 -12.0625 11.609375 -12.0625 L 3.59375 -12.0625 L 3.59375 -7.53125 L 10.53125 -7.53125 C 10.601562 -7.53125 10.664062 -7.5 10.71875 -7.4375 C 10.78125 -7.382812 10.8125 -7.320312 10.8125 -7.25 L 10.8125 -6.3125 C 10.8125 -6.226562 10.78125 -6.160156 10.71875 -6.109375 C 10.664062 -6.054688 10.601562 -6.03125 10.53125 -6.03125 L 3.59375 -6.03125 L 3.59375 -1.5 L 11.609375 -1.5 C 11.679688 -1.5 11.742188 -1.46875 11.796875 -1.40625 C 11.847656 -1.351562 11.875 -1.289062 11.875 -1.21875 L 11.875 -0.28125 C 11.875 -0.09375 11.785156 0 11.609375 0 L 2.390625 0 C 2.203125 0 2.109375 -0.09375 2.109375 -0.28125 Z M 2.109375 -0.28125 "/></g></g></g><g fill="#000000" fill-opacity="1"><g transform="translate(132.908413, 28.2655)"><g><path d="M 1.796875 -0.28125 L 1.796875 -13.28125 C 1.796875 -13.34375 1.820312 -13.40625 1.875 -13.46875 C 1.9375 -13.53125 2.003906 -13.5625 2.078125 -13.5625 L 9.09375 -13.5625 C 9.488281 -13.5625 9.859375 -13.484375 10.203125 -13.328125 C 10.554688 -13.179688 10.863281 -12.972656 11.125 -12.703125 C 11.382812 -12.441406 11.59375 -12.132812 11.75 -11.78125 C 11.90625 -11.4375 11.984375 -11.066406 11.984375 -10.671875 L 11.984375 -2.890625 C 11.984375 -2.492188 11.90625 -2.113281 11.75 -1.75 C 11.59375 -1.394531 11.382812 -1.085938 11.125 -0.828125 C 10.863281 -0.578125 10.554688 -0.375 10.203125 -0.21875 C 9.859375 -0.0703125 9.488281 0 9.09375 0 L 2.078125 0 C 2.003906 0 1.9375 -0.0234375 1.875 -0.078125 C 1.820312 -0.128906 1.796875 -0.195312 1.796875 -0.28125 Z M 3.296875 -1.5 L 9.09375 -1.5 C 9.476562 -1.5 9.800781 -1.632812 10.0625 -1.90625 C 10.332031 -2.175781 10.46875 -2.503906 10.46875 -2.890625 L 10.46875 -10.671875 C 10.46875 -11.054688 10.332031 -11.382812 10.0625 -11.65625 C 9.800781 -11.925781 9.476562 -12.0625 9.09375 -12.0625 L 3.296875 -12.0625 Z M 3.296875 -1.5 "/></g></g></g><g clip-path="url(#6685df794d)"><g transform="matrix(1, 0, 0, 1, 147, 9)"><g clip-path="url(#f751ce8d02)"><g clip-path="url(#551a0ffd33)"><g fill="#000000" fill-opacity="1"><g transform="translate(0.0999237, 4.804224)"><g><path d="M 1.21875 0 L 0.890625 0 L 0.890625 -2.46875 L 0.03125 -2.46875 L 0.03125 -2.75 L 2.078125 -2.75 L 2.078125 -2.46875 L 1.21875 -2.46875 Z M 1.21875 0 "/></g></g></g></g><g fill="#000000" fill-opacity="1"><g transform="translate(2.484933, 4.804224)"><g><path d="M 1.578125 0 L 0.65625 -2.421875 L 0.640625 -2.421875 C 0.648438 -2.378906 0.65625 -2.316406 0.65625 -2.234375 C 0.664062 -2.160156 0.671875 -2.082031 0.671875 -2 C 0.671875 -1.914062 0.671875 -1.828125 0.671875 -1.734375 L 0.671875 0 L 0.375 0 L 0.375 -2.75 L 0.84375 -2.75 L 1.71875 -0.46875 L 1.734375 -0.46875 L 2.609375 -2.75 L 3.078125 -2.75 L 3.078125 0 L 2.765625 0 L 2.765625 -1.75 C 2.765625 -1.832031 2.765625 -1.914062 2.765625 -2 C 2.773438 -2.082031 2.78125 -2.160156 2.78125 -2.234375 C 2.78125 -2.304688 2.785156 -2.367188 2.796875 -2.421875 L 2.78125 -2.421875 L 1.84375 0 Z M 1.578125 0 "/></g></g></g></g></g></g><path fill="#000000" d="M 22.203125 20.136719 L 6.589844 12.789062 L 22.203125 5.441406 L 37.820312 12.789062 Z M 5.335938 13.375 L 22.203125 21.316406 L 39.070312 13.375 L 40.324219 12.789062 L 39.070312 12.203125 L 22.203125 4.261719 L 5.335938 12.203125 L 4.085938 12.789062 Z M 9.386719 18.820312 C 6.222656 20.3125 4.449219 21.144531 4.085938 21.316406 L 5.335938 21.902344 L 22.203125 29.84375 L 39.070312 21.902344 L 40.324219 21.316406 C 39.957031 21.144531 38.183594 20.3125 35.019531 18.820312 L 33.769531 19.40625 L 37.820312 21.3125 L 22.203125 28.660156 L 6.589844 21.3125 L 10.640625 19.40625 Z M 5.335938 29.257812 L 4.085938 29.84375 L 5.335938 30.429688 L 22.203125 38.371094 L 39.070312 30.429688 L 40.324219 29.84375 C 39.957031 29.671875 38.183594 28.839844 35.019531 27.347656 L 33.769531 27.933594 L 37.820312 29.835938 L 22.203125 37.1875 L 6.589844 29.835938 L 10.640625 27.933594 L 9.386719 27.347656 L 5.335938 29.25 Z M 5.335938 29.257812 " fill-opacity="1" fill-rule="nonzero"/></g></g></g></svg>